<mxfile host="app.diagrams.net" modified="2023-11-02T05:58:16.857Z" agent="Mozilla/5.0 (Windows NT 10.0; Win64; x64) AppleWebKit/537.36 (KHTML, like Gecko) Chrome/118.0.0.0 Safari/537.36 Edg/118.0.2088.76" etag="Zf6ooh0yMLJEWUlQwGzF" version="22.0.8" type="device">
  <diagram name="Страница — 1" id="d3BTORzs6zCaHZ4VjhYO">
    <mxGraphModel dx="1002" dy="577" grid="0" gridSize="10" guides="1" tooltips="1" connect="1" arrows="1" fold="1" page="1" pageScale="1" pageWidth="827" pageHeight="1169" math="0" shadow="0">
      <root>
        <mxCell id="0" />
        <mxCell id="1" parent="0" />
        <mxCell id="KoHlHtbE5LmbL0sot4L0-18" style="edgeStyle=orthogonalEdgeStyle;rounded=0;orthogonalLoop=1;jettySize=auto;html=1;exitX=1;exitY=0.5;exitDx=0;exitDy=0;entryX=0;entryY=0.5;entryDx=0;entryDy=0;startArrow=ERmany;startFill=0;endArrow=none;endFill=0;" parent="1" source="KoHlHtbE5LmbL0sot4L0-5" target="KoHlHtbE5LmbL0sot4L0-7" edge="1">
          <mxGeometry relative="1" as="geometry" />
        </mxCell>
        <mxCell id="KoHlHtbE5LmbL0sot4L0-5" value="Проект" style="swimlane;childLayout=stackLayout;horizontal=1;startSize=120;horizontalStack=0;rounded=1;fontSize=14;fontStyle=0;strokeWidth=2;resizeParent=0;resizeLast=1;shadow=0;dashed=0;align=center;arcSize=4;whiteSpace=wrap;html=1;" parent="1" vertex="1">
          <mxGeometry x="326" y="489" width="170" height="50" as="geometry" />
        </mxCell>
        <mxCell id="KoHlHtbE5LmbL0sot4L0-7" value="Заказчик" style="swimlane;childLayout=stackLayout;horizontal=1;startSize=120;horizontalStack=0;rounded=1;fontSize=14;fontStyle=0;strokeWidth=2;resizeParent=0;resizeLast=1;shadow=0;dashed=0;align=center;arcSize=4;whiteSpace=wrap;html=1;" parent="1" vertex="1">
          <mxGeometry x="527" y="489" width="170" height="50" as="geometry" />
        </mxCell>
        <mxCell id="KoHlHtbE5LmbL0sot4L0-17" style="edgeStyle=orthogonalEdgeStyle;rounded=0;orthogonalLoop=1;jettySize=auto;html=1;startArrow=ERmany;startFill=0;endArrow=ERmany;endFill=0;exitX=0.25;exitY=1;exitDx=0;exitDy=0;" parent="1" source="KoHlHtbE5LmbL0sot4L0-10" target="KoHlHtbE5LmbL0sot4L0-5" edge="1">
          <mxGeometry relative="1" as="geometry">
            <mxPoint x="370" y="460" as="sourcePoint" />
            <Array as="points">
              <mxPoint x="370" y="430" />
            </Array>
          </mxGeometry>
        </mxCell>
        <mxCell id="KoHlHtbE5LmbL0sot4L0-33" value="реализует" style="edgeLabel;html=1;align=center;verticalAlign=middle;resizable=0;points=[];" parent="KoHlHtbE5LmbL0sot4L0-17" vertex="1" connectable="0">
          <mxGeometry x="-0.7862" y="-1" relative="1" as="geometry">
            <mxPoint x="3" y="9" as="offset" />
          </mxGeometry>
        </mxCell>
        <mxCell id="KoHlHtbE5LmbL0sot4L0-20" style="edgeStyle=orthogonalEdgeStyle;rounded=0;orthogonalLoop=1;jettySize=auto;html=1;exitX=0.5;exitY=0;exitDx=0;exitDy=0;entryX=0.5;entryY=1;entryDx=0;entryDy=0;endArrow=none;endFill=0;startArrow=ERmany;startFill=0;" parent="1" source="KoHlHtbE5LmbL0sot4L0-10" target="KoHlHtbE5LmbL0sot4L0-11" edge="1">
          <mxGeometry relative="1" as="geometry" />
        </mxCell>
        <mxCell id="KoHlHtbE5LmbL0sot4L0-23" value="имеет" style="edgeLabel;html=1;align=center;verticalAlign=middle;resizable=0;points=[];" parent="KoHlHtbE5LmbL0sot4L0-20" vertex="1" connectable="0">
          <mxGeometry x="-0.8111" y="2" relative="1" as="geometry">
            <mxPoint x="2" y="-14" as="offset" />
          </mxGeometry>
        </mxCell>
        <mxCell id="KoHlHtbE5LmbL0sot4L0-24" value="принадлежит" style="edgeLabel;html=1;align=center;verticalAlign=middle;resizable=0;points=[];" parent="KoHlHtbE5LmbL0sot4L0-20" vertex="1" connectable="0">
          <mxGeometry x="0.8593" relative="1" as="geometry">
            <mxPoint y="8" as="offset" />
          </mxGeometry>
        </mxCell>
        <mxCell id="KoHlHtbE5LmbL0sot4L0-21" style="edgeStyle=orthogonalEdgeStyle;rounded=0;orthogonalLoop=1;jettySize=auto;html=1;exitX=0;exitY=0.5;exitDx=0;exitDy=0;entryX=1;entryY=0.5;entryDx=0;entryDy=0;endArrow=ERmany;endFill=0;" parent="1" source="KoHlHtbE5LmbL0sot4L0-10" target="KoHlHtbE5LmbL0sot4L0-12" edge="1">
          <mxGeometry relative="1" as="geometry">
            <mxPoint x="180" y="365" as="targetPoint" />
          </mxGeometry>
        </mxCell>
        <mxCell id="KoHlHtbE5LmbL0sot4L0-44" value="создает" style="edgeLabel;html=1;align=center;verticalAlign=middle;resizable=0;points=[];" parent="KoHlHtbE5LmbL0sot4L0-21" vertex="1" connectable="0">
          <mxGeometry x="-0.5485" y="-2" relative="1" as="geometry">
            <mxPoint x="-19" y="-10" as="offset" />
          </mxGeometry>
        </mxCell>
        <mxCell id="KoHlHtbE5LmbL0sot4L0-10" value="Пользователь" style="swimlane;childLayout=stackLayout;horizontal=1;startSize=120;horizontalStack=0;rounded=1;fontSize=14;fontStyle=0;strokeWidth=2;resizeParent=0;resizeLast=1;shadow=0;dashed=0;align=center;arcSize=4;whiteSpace=wrap;html=1;" parent="1" vertex="1">
          <mxGeometry x="326" y="367" width="170" height="50" as="geometry" />
        </mxCell>
        <mxCell id="KoHlHtbE5LmbL0sot4L0-11" value="Должность" style="swimlane;childLayout=stackLayout;horizontal=1;startSize=120;horizontalStack=0;rounded=1;fontSize=14;fontStyle=0;strokeWidth=2;resizeParent=0;resizeLast=1;shadow=0;dashed=0;align=center;arcSize=4;whiteSpace=wrap;html=1;" parent="1" vertex="1">
          <mxGeometry x="326" y="235" width="170" height="50" as="geometry" />
        </mxCell>
        <mxCell id="KoHlHtbE5LmbL0sot4L0-12" value="Рабочий день" style="swimlane;childLayout=stackLayout;horizontal=1;startSize=120;horizontalStack=0;rounded=1;fontSize=14;fontStyle=0;strokeWidth=2;resizeParent=0;resizeLast=1;shadow=0;dashed=0;align=center;arcSize=4;whiteSpace=wrap;html=1;" parent="1" vertex="1">
          <mxGeometry x="88" y="367" width="170" height="50" as="geometry" />
        </mxCell>
      </root>
    </mxGraphModel>
  </diagram>
</mxfile>
